# xmcd CD database file
#
# Track frame offsets:
#	150
#	15519
#	30166
#	42925
#	73639
#	86508
#	101131
#	124903
#	141741
#	156588
#
# Disc length: 2313 seconds
#
# Revision: 1
# Processed by: cddbd v1.5.2PL0 Copyright (c) Steve Scherf et al.
# Submitted via: CDex 1.51
#
DISCID=8709070a
DTITLE=Gary Numan - The Pleasure Principle - The First Recordings [CD2)
DYEAR=2019
DGENRE=New Wave
TTITLE0=Airlane
TTITLE1=Cars
TTITLE2=Films
TTITLE3=Conversation
TTITLE4=Tracks (Out-Take Mix)
TTITLE5=Complex (Out-Take Mix)
TTITLE6=M.E. (Out-Take Mix)
TTITLE7=Engineers (Out-Take Mix)
TTITLE8=Airlane (Out-Take Mix)
TTITLE9=Cars (Out-Take Mix)
EXTD=YEAR: 2019
EXTT0=
EXTT1=
EXTT2=
EXTT3=
EXTT4=
EXTT5=
EXTT6=
EXTT7=
EXTT8=
EXTT9=
PLAYORDER=
